<svg viewBox="0 0 680 512" xmlns="http://www.w3.org/2000/svg" font-family="Calibri, 'Segoe UI', 'Liberation Sans', Arial, sans-serif"><style>.th{font-size:14px;font-weight:700}.ts{font-size:11px}.tn{font-size:12.5px;font-weight:700}</style><rect width="680" height="512" fill="#FFFFFF"/><rect x="24" y="24" width="632" height="86" rx="12" fill="#E7EAF3" stroke="#1F3569" stroke-width="1"/><rect x="40.0" y="38.0" width="32" height="32" rx="7" fill="#1F3569" fill-opacity="0.28"/><polygon points="56.0,47.0 63.0,50.0 63.0,56.0 56.0,61.0 49.0,56.0 49.0,50.0" fill="none" stroke="#1F3569" stroke-width="1.4"/><path d="M53.0,54.0 l2,2 4,-4" fill="none" stroke="#1F3569" stroke-width="1.4" stroke-linecap="round"/><text class="th" x="82" y="47" dominant-baseline="central" text-anchor="start" fill="#1F3569">Authorization Server — API Gateway</text><text class="ts" x="82" y="65" dominant-baseline="central" text-anchor="start" fill="#3A4A78">Server-side web API; client-certificate (mTLS) protected</text><rect x="190" y="72" width="300" height="28" rx="7" fill="#FFFFFF" stroke="#1F3569" stroke-width="1"/><text class="tn" x="340.0" y="86.0" dominant-baseline="central" text-anchor="middle" fill="#1F3569">API Server (mutual TLS · X.509)</text><line x1="340" y1="110" x2="340" y2="120" stroke="#6A7488" stroke-width="1.6"/><polygon points="340.0,120.0 337.3,113.6 342.7,113.6" fill="#6A7488"/><rect x="24" y="122" width="632" height="150" rx="12" fill="#E7EAF3" stroke="#1F3569" stroke-width="1"/><rect x="40.0" y="136.0" width="32" height="32" rx="7" fill="#1F3569" fill-opacity="0.28"/><polygon points="56.0,145.0 63.0,148.0 63.0,154.0 56.0,159.0 49.0,154.0 49.0,148.0" fill="none" stroke="#1F3569" stroke-width="1.4"/><path d="M53.0,152.0 l2,2 4,-4" fill="none" stroke="#1F3569" stroke-width="1.4" stroke-linecap="round"/><text class="th" x="82" y="145" dominant-baseline="central" text-anchor="start" fill="#1F3569">Core Modules</text><text class="ts" x="82" y="163" dominant-baseline="central" text-anchor="start" fill="#3A4A78">Identity, roles, policy &amp; tokens</text><rect x="40.0" y="184" width="141.0" height="72" rx="7" fill="#FFFFFF" stroke="#1F3569" stroke-width="1"/><rect x="97.5" y="189.0" width="26" height="26" rx="6" fill="#1F3569" fill-opacity="0.22"/><polygon points="110.5,196.4 116.1,198.8 116.1,203.6 110.5,207.6 104.9,203.6 104.9,198.8" fill="none" stroke="#1F3569" stroke-width="1.4"/><path d="M108.1,202.0 l2,2 4,-4" fill="none" stroke="#1F3569" stroke-width="1.4" stroke-linecap="round"/><text class="tn" x="110.5" y="221" dominant-baseline="central" text-anchor="middle" fill="#1F3569">Certificate Manager</text><text class="ts" x="110.5" y="235" dominant-baseline="central" text-anchor="middle" fill="#3A4A78">Registration · CSR · mTLS</text><rect x="193.0" y="184" width="141.0" height="72" rx="7" fill="#FFFFFF" stroke="#1F3569" stroke-width="1"/><rect x="250.5" y="189.0" width="26" height="26" rx="6" fill="#1F3569" fill-opacity="0.22"/><circle cx="260.3" cy="199.6" r="1.9" fill="#1F3569"/><path d="M257.1,206.0 a4,4 0 0 1 8,0" fill="#1F3569"/><circle cx="266.7" cy="200.4" r="1.6" fill="none" stroke="#1F3569" stroke-width="1.4"/><path d="M263.9,206.0 a3.2,3.2 0 0 1 7,0" fill="none" stroke="#1F3569" stroke-width="1.4"/><text class="tn" x="263.5" y="221" dominant-baseline="central" text-anchor="middle" fill="#1F3569">Role Manager</text><text class="ts" x="263.5" y="235" dominant-baseline="central" text-anchor="middle" fill="#3A4A78">Initial permissions</text><rect x="346.0" y="184" width="141.0" height="72" rx="7" fill="#FFFFFF" stroke="#1F3569" stroke-width="1"/><rect x="403.5" y="189.0" width="26" height="26" rx="6" fill="#1F3569" fill-opacity="0.22"/><circle cx="416.5" cy="202.0" r="2.4" fill="none" stroke="#1F3569" stroke-width="1.4"/><line x1="416.5" y1="202.0" x2="416.5" y2="202.0" stroke="#1F3569" stroke-width="1.6" stroke-linecap="round"/><line x1="421.1" y1="202.0" x2="423.1" y2="202.0" stroke="#1F3569" stroke-width="1.6" stroke-linecap="round"/><line x1="419.8" y1="205.3" x2="421.2" y2="206.7" stroke="#1F3569" stroke-width="1.6" stroke-linecap="round"/><line x1="416.5" y1="206.6" x2="416.5" y2="208.6" stroke="#1F3569" stroke-width="1.6" stroke-linecap="round"/><line x1="413.3" y1="205.3" x2="411.8" y2="206.7" stroke="#1F3569" stroke-width="1.6" stroke-linecap="round"/><line x1="411.9" y1="202.0" x2="409.9" y2="202.0" stroke="#1F3569" stroke-width="1.6" stroke-linecap="round"/><line x1="413.2" y1="198.8" x2="411.8" y2="197.3" stroke="#1F3569" stroke-width="1.6" stroke-linecap="round"/><line x1="416.5" y1="197.4" x2="416.5" y2="195.4" stroke="#1F3569" stroke-width="1.6" stroke-linecap="round"/><line x1="419.7" y1="198.7" x2="421.2" y2="197.3" stroke="#1F3569" stroke-width="1.6" stroke-linecap="round"/><text class="tn" x="416.5" y="221" dominant-baseline="central" text-anchor="middle" fill="#1F3569">Policy Engine</text><text class="ts" x="416.5" y="235" dominant-baseline="central" text-anchor="middle" fill="#3A4A78">Access policies &amp; rules</text><rect x="499.0" y="184" width="141.0" height="72" rx="7" fill="#FFFFFF" stroke="#1F3569" stroke-width="1"/><rect x="556.5" y="189.0" width="26" height="26" rx="6" fill="#1F3569" fill-opacity="0.22"/><path d="M565.5,202.0 l3,3 6,-7" fill="none" stroke="#1F3569" stroke-width="2" stroke-linecap="round" stroke-linejoin="round"/><text class="tn" x="569.5" y="221" dominant-baseline="central" text-anchor="middle" fill="#1F3569">Token Manager</text><text class="ts" x="569.5" y="235" dominant-baseline="central" text-anchor="middle" fill="#3A4A78">Issue · introspect · revoke</text><line x1="340" y1="272" x2="340" y2="282" stroke="#6A7488" stroke-width="1.6"/><polygon points="340.0,282.0 337.3,275.6 342.7,275.6" fill="#6A7488"/><rect x="24" y="284" width="632" height="80" rx="12" fill="#E2F1F2" stroke="#0E7C86" stroke-width="1"/><rect x="40.0" y="298.0" width="32" height="32" rx="7" fill="#0E7C86" fill-opacity="0.28"/><circle cx="53.0" cy="314.0" r="2.0" fill="none" stroke="#0E7C86" stroke-width="1.4"/><circle cx="59.0" cy="314.0" r="2.0" fill="none" stroke="#0E7C86" stroke-width="1.4"/><line x1="54.4" y1="312.6" x2="57.6" y2="315.4" stroke="#0E7C86" stroke-width="1.6" stroke-linecap="round"/><line x1="54.4" y1="315.4" x2="57.6" y2="312.6" stroke="#0E7C86" stroke-width="1.6" stroke-linecap="round"/><text class="th" x="82" y="307" dominant-baseline="central" text-anchor="start" fill="#0B4F56">Roles (Role Manager)</text><text class="ts" x="82" y="325" dominant-baseline="central" text-anchor="start" fill="#0B626A">At least one role per user; more assigned dynamically</text><rect x="40.0" y="340" width="113.6" height="24" rx="12" fill="#0E7C86" fill-opacity="0.12" stroke="#0E7C86" stroke-width="1"/><text class="ts" x="96.8" y="352.0" dominant-baseline="central" text-anchor="middle" fill="#0E7C86">Provider</text><rect x="161.6" y="340" width="113.6" height="24" rx="12" fill="#0E7C86" fill-opacity="0.12" stroke="#0E7C86" stroke-width="1"/><text class="ts" x="218.39999999999998" y="352.0" dominant-baseline="central" text-anchor="middle" fill="#0E7C86">Consumer</text><rect x="283.2" y="340" width="113.6" height="24" rx="12" fill="#0E7C86" fill-opacity="0.12" stroke="#0E7C86" stroke-width="1"/><text class="ts" x="340.0" y="352.0" dominant-baseline="central" text-anchor="middle" fill="#0E7C86">Onboarder</text><rect x="404.79999999999995" y="340" width="113.6" height="24" rx="12" fill="#0E7C86" fill-opacity="0.12" stroke="#0E7C86" stroke-width="1"/><text class="ts" x="461.59999999999997" y="352.0" dominant-baseline="central" text-anchor="middle" fill="#0E7C86">Data Ingester</text><rect x="526.4" y="340" width="113.6" height="24" rx="12" fill="#0E7C86" fill-opacity="0.12" stroke="#0E7C86" stroke-width="1"/><text class="ts" x="583.1999999999999" y="352.0" dominant-baseline="central" text-anchor="middle" fill="#0E7C86">Admin</text><line x1="340" y1="364" x2="340" y2="374" stroke="#6A7488" stroke-width="1.6"/><polygon points="340.0,374.0 337.3,367.6 342.7,367.6" fill="#6A7488"/><rect x="24" y="376" width="632" height="116" rx="12" fill="#EEF0F4" stroke="#6A7488" stroke-width="1"/><rect x="40.0" y="390.0" width="32" height="32" rx="7" fill="#6A7488" fill-opacity="0.28"/><circle cx="52.0" cy="403.0" r="2.4" fill="#6A7488"/><path d="M48.0,411.0 a4,4 0 0 1 8,0" fill="#6A7488"/><circle cx="60.0" cy="404.0" r="2.0" fill="none" stroke="#6A7488" stroke-width="1.4"/><path d="M56.5,411.0 a3.2,3.2 0 0 1 7,0" fill="none" stroke="#6A7488" stroke-width="1.4"/><text class="th" x="82" y="399" dominant-baseline="central" text-anchor="start" fill="#2A3140">API Groups &amp; Token Operations</text><text class="ts" x="82" y="417" dominant-baseline="central" text-anchor="start" fill="#4A5363">Auth · Admin · Consent APIs</text><rect x="40.0" y="438" width="113.6" height="24" rx="12" fill="#6A7488" fill-opacity="0.12" stroke="#6A7488" stroke-width="1"/><text class="ts" x="96.8" y="450.0" dominant-baseline="central" text-anchor="middle" fill="#6A7488">Request</text><rect x="161.6" y="438" width="113.6" height="24" rx="12" fill="#6A7488" fill-opacity="0.12" stroke="#6A7488" stroke-width="1"/><text class="ts" x="218.39999999999998" y="450.0" dominant-baseline="central" text-anchor="middle" fill="#6A7488">Introspect (TIP)</text><rect x="283.2" y="438" width="113.6" height="24" rx="12" fill="#6A7488" fill-opacity="0.12" stroke="#6A7488" stroke-width="1"/><text class="ts" x="340.0" y="450.0" dominant-baseline="central" text-anchor="middle" fill="#6A7488">Audit</text><rect x="404.79999999999995" y="438" width="113.6" height="24" rx="12" fill="#6A7488" fill-opacity="0.12" stroke="#6A7488" stroke-width="1"/><text class="ts" x="461.59999999999997" y="450.0" dominant-baseline="central" text-anchor="middle" fill="#6A7488">Revoke</text><rect x="526.4" y="438" width="113.6" height="24" rx="12" fill="#6A7488" fill-opacity="0.12" stroke="#6A7488" stroke-width="1"/><text class="ts" x="583.1999999999999" y="450.0" dominant-baseline="central" text-anchor="middle" fill="#6A7488">Revoke-all</text><text class="ts" x="40" y="470" dominant-baseline="central" text-anchor="start" fill="#4A5363">Auth APIs (policy &amp; tokens) · Admin APIs (provider approval, org registration) · Consent APIs (role registration)</text></svg>