<svg viewBox="0 0 680 470" xmlns="http://www.w3.org/2000/svg" font-family="Calibri, 'Segoe UI', 'Liberation Sans', Arial, sans-serif"><style>.th{font-size:14px;font-weight:700}.ts{font-size:11px}.tn{font-size:12.5px;font-weight:700}</style><rect width="680" height="470" fill="#FFFFFF"/><rect x="190" y="24" width="300" height="56" rx="7" fill="#FFFFFF" stroke="#6A7488" stroke-width="1"/><rect x="198.0" y="34.0" width="28" height="28" rx="6" fill="#6A7488" fill-opacity="0.22"/><rect x="206.9" y="42.9" width="10.2" height="10.2" rx="1" fill="none" stroke="#6A7488" stroke-width="1.4"/><line x1="210.3" y1="45.5" x2="210.3" y2="45.5" stroke="#6A7488" stroke-width="1.6" stroke-linecap="round"/><rect x="209.0" y="49.3" width="2.1" height="3.8" fill="#6A7488"/><rect x="209.0" y="45.0" width="1.7" height="1.7" fill="none" stroke="#6A7488" stroke-width="1"/><rect x="213.3" y="45.0" width="1.7" height="1.7" fill="none" stroke="#6A7488" stroke-width="1"/><text class="tn" x="234" y="42" dominant-baseline="central" text-anchor="start" fill="#2A3140">Consumer Applications</text><text class="ts" x="234" y="58" dominant-baseline="central" text-anchor="start" fill="#4A5363">ICCC · Pollution · ETA apps</text><line x1="340" y1="80" x2="340" y2="150" stroke="#6A7488" stroke-width="1.6"/><polygon points="340.0,150.0 337.3,143.6 342.7,143.6" fill="#6A7488"/><polygon points="340.0,80.0 342.7,86.4 337.3,86.4" fill="#6A7488"/><text class="ts" x="354" y="116" dominant-baseline="central" text-anchor="start" fill="#0B626A">Data access APIs</text><rect x="24" y="152" width="632" height="150" rx="12" fill="#E6F3EC" stroke="#1E8E5A" stroke-width="1"/><rect x="40.0" y="166.0" width="32" height="32" rx="7" fill="#1E8E5A" fill-opacity="0.28"/><polygon points="56.0,175.0 58.0,180.0 63.0,182.0 58.0,184.0 56.0,189.0 54.0,184.0 49.0,182.0 54.0,180.0" fill="#1E8E5A" stroke="#1E8E5A" stroke-width="1.4"/><text class="th" x="82" y="175" dominant-baseline="central" text-anchor="start" fill="#124E32">IUDX</text><text class="ts" x="82" y="193" dominant-baseline="central" text-anchor="start" fill="#176E46">Three key services constitute the exchange</text><rect x="40.0" y="216" width="189.33333333333334" height="72" rx="7" fill="#FFFFFF" stroke="#1F3569" stroke-width="1"/><rect x="121.66666666666669" y="221.0" width="26" height="26" rx="6" fill="#1F3569" fill-opacity="0.22"/><polygon points="134.7,228.4 140.3,230.8 140.3,235.6 134.7,239.6 129.1,235.6 129.1,230.8" fill="none" stroke="#1F3569" stroke-width="1.4"/><path d="M132.3,234.0 l2,2 4,-4" fill="none" stroke="#1F3569" stroke-width="1.4" stroke-linecap="round"/><text class="tn" x="134.66666666666669" y="253" dominant-baseline="central" text-anchor="middle" fill="#1F3569">Authorization Server</text><text class="ts" x="134.66666666666669" y="267" dominant-baseline="central" text-anchor="middle" fill="#3A4A78">Access control &amp; tokens</text><rect x="245.33333333333334" y="216" width="189.33333333333334" height="72" rx="7" fill="#FFFFFF" stroke="#1F3569" stroke-width="1"/><rect x="327.0" y="221.0" width="26" height="26" rx="6" fill="#1F3569" fill-opacity="0.22"/><circle cx="338.8" cy="232.8" r="3.6" fill="none" stroke="#1F3569" stroke-width="1.4"/><line x1="341.6" y1="235.6" x2="344.8" y2="238.8" stroke="#1F3569" stroke-width="1.8" stroke-linecap="round"/><text class="tn" x="340.0" y="253" dominant-baseline="central" text-anchor="middle" fill="#1F3569">Catalogue Server</text><text class="ts" x="340.0" y="267" dominant-baseline="central" text-anchor="middle" fill="#3A4A78">Discovery &amp; metadata</text><rect x="450.6666666666667" y="216" width="189.33333333333334" height="72" rx="7" fill="#FFFFFF" stroke="#0E7C86" stroke-width="1"/><rect x="532.3333333333334" y="221.0" width="26" height="26" rx="6" fill="#0E7C86" fill-opacity="0.22"/><ellipse cx="545.3333333333334" cy="230.0" rx="5.6" ry="2.1" fill="none" stroke="#0E7C86" stroke-width="1.4"/><path d="M539.7,230.0 V238.0 a7,2.6 0 0 0 14,0 V230.0" fill="none" stroke="#0E7C86" stroke-width="1.4"/><path d="M539.7,234.0 a7,2.6 0 0 0 14,0" fill="none" stroke="#0E7C86" stroke-width="1.2"/><text class="tn" x="545.3333333333334" y="253" dominant-baseline="central" text-anchor="middle" fill="#0B4F56">Resource Server(s)</text><text class="ts" x="545.3333333333334" y="267" dominant-baseline="central" text-anchor="middle" fill="#0B626A">Data access &amp; ingestion</text><line x1="340" y1="302" x2="340" y2="372" stroke="#6A7488" stroke-width="1.6"/><polygon points="340.0,372.0 337.3,365.6 342.7,365.6" fill="#6A7488"/><polygon points="340.0,302.0 342.7,308.4 337.3,308.4" fill="#6A7488"/><text class="ts" x="354" y="338" dominant-baseline="central" text-anchor="start" fill="#0B626A">Ingest / serve data</text><rect x="190" y="374" width="300" height="56" rx="7" fill="#FFFFFF" stroke="#6A7488" stroke-width="1"/><rect x="198.0" y="384.0" width="28" height="28" rx="6" fill="#6A7488" fill-opacity="0.22"/><rect x="206.9" y="392.9" width="10.2" height="10.2" rx="1" fill="none" stroke="#6A7488" stroke-width="1.4"/><line x1="210.3" y1="395.4" x2="210.3" y2="395.4" stroke="#6A7488" stroke-width="1.6" stroke-linecap="round"/><rect x="209.0" y="399.3" width="2.1" height="3.8" fill="#6A7488"/><rect x="209.0" y="395.0" width="1.7" height="1.7" fill="none" stroke="#6A7488" stroke-width="1"/><rect x="213.3" y="395.0" width="1.7" height="1.7" fill="none" stroke="#6A7488" stroke-width="1"/><text class="tn" x="234" y="392" dominant-baseline="central" text-anchor="start" fill="#2A3140">Data Providers</text><text class="ts" x="234" y="408" dominant-baseline="central" text-anchor="start" fill="#4A5363">AQM · ITMS · Video · eGov</text></svg>