<svg viewBox="0 0 680 490" xmlns="http://www.w3.org/2000/svg" font-family="Calibri, 'Segoe UI', 'Liberation Sans', Arial, sans-serif"><style>.th{font-size:14px;font-weight:700}.ts{font-size:11px}.tn{font-size:12.5px;font-weight:700}</style><rect width="680" height="490" fill="#FFFFFF"/><rect x="24" y="24" width="632" height="118" rx="12" fill="#E7EAF3" stroke="#1F3569" stroke-width="1"/><rect x="40.0" y="38.0" width="32" height="32" rx="7" fill="#1F3569" fill-opacity="0.28"/><polygon points="56.0,47.0 63.0,50.0 63.0,56.0 56.0,61.0 49.0,56.0 49.0,50.0" fill="none" stroke="#1F3569" stroke-width="1.4"/><path d="M53.0,54.0 l2,2 4,-4" fill="none" stroke="#1F3569" stroke-width="1.4" stroke-linecap="round"/><text class="th" x="82" y="47" dominant-baseline="central" text-anchor="start" fill="#1F3569">Catalogue Server — API Gateway</text><text class="ts" x="82" y="65" dominant-baseline="central" text-anchor="start" fill="#3A4A78">Store of JSON-LD metadata with powerful discovery</text><rect x="190" y="86" width="300" height="32" rx="7" fill="#FFFFFF" stroke="#1F3569" stroke-width="1"/><text class="tn" x="340.0" y="102.0" dominant-baseline="central" text-anchor="middle" fill="#1F3569">API Server (HTTPS · NGSI-LD / REST)</text><rect x="24" y="152" width="632" height="150" rx="12" fill="#E2F1F2" stroke="#0E7C86" stroke-width="1"/><rect x="40.0" y="166.0" width="32" height="32" rx="7" fill="#0E7C86" fill-opacity="0.28"/><circle cx="53.0" cy="182.0" r="2.0" fill="none" stroke="#0E7C86" stroke-width="1.4"/><circle cx="59.0" cy="182.0" r="2.0" fill="none" stroke="#0E7C86" stroke-width="1.4"/><line x1="54.4" y1="180.6" x2="57.6" y2="183.4" stroke="#0E7C86" stroke-width="1.6" stroke-linecap="round"/><line x1="54.4" y1="183.4" x2="57.6" y2="180.6" stroke="#0E7C86" stroke-width="1.6" stroke-linecap="round"/><text class="th" x="82" y="175" dominant-baseline="central" text-anchor="start" fill="#0B4F56">Catalogue Server — Core Services</text><text class="ts" x="82" y="193" dominant-baseline="central" text-anchor="start" fill="#0B626A">Service-mesh microservices</text><rect x="40.0" y="214" width="192.0" height="72" rx="7" fill="#FFFFFF" stroke="#0E7C86" stroke-width="1"/><rect x="123.0" y="219.0" width="26" height="26" rx="6" fill="#0E7C86" fill-opacity="0.22"/><circle cx="134.8" cy="230.8" r="3.6" fill="none" stroke="#0E7C86" stroke-width="1.4"/><line x1="137.6" y1="233.6" x2="140.8" y2="236.8" stroke="#0E7C86" stroke-width="1.8" stroke-linecap="round"/><text class="tn" x="136.0" y="251" dominant-baseline="central" text-anchor="middle" fill="#0B4F56">DB Discovery Service</text><text class="ts" x="136.0" y="265" dominant-baseline="central" text-anchor="middle" fill="#0B626A">Attribute · geo · text · list</text><rect x="244.0" y="214" width="192.0" height="72" rx="7" fill="#FFFFFF" stroke="#0E7C86" stroke-width="1"/><rect x="327.0" y="219.0" width="26" height="26" rx="6" fill="#0E7C86" fill-opacity="0.22"/><rect x="336.0" y="227.2" width="8.0" height="9.6" rx="1" fill="none" stroke="#0E7C86" stroke-width="1.4"/><line x1="338.0" y1="229.6" x2="342.0" y2="229.6" stroke="#0E7C86" stroke-width="1.6" stroke-linecap="round"/><line x1="338.0" y1="232.0" x2="342.0" y2="232.0" stroke="#0E7C86" stroke-width="1.6" stroke-linecap="round"/><line x1="338.0" y1="234.4" x2="340.8" y2="234.4" stroke="#0E7C86" stroke-width="1.6" stroke-linecap="round"/><text class="tn" x="340.0" y="251" dominant-baseline="central" text-anchor="middle" fill="#0B4F56">Item Cataloguing Service</text><text class="ts" x="340.0" y="265" dominant-baseline="central" text-anchor="middle" fill="#0B626A">Schema, link &amp; summarization</text><rect x="448.0" y="214" width="192.0" height="72" rx="7" fill="#FFFFFF" stroke="#0E7C86" stroke-width="1"/><rect x="531.0" y="219.0" width="26" height="26" rx="6" fill="#0E7C86" fill-opacity="0.22"/><polygon points="544.0,226.4 549.6,228.8 549.6,233.6 544.0,237.6 538.4,233.6 538.4,228.8" fill="none" stroke="#0E7C86" stroke-width="1.4"/><path d="M541.6,232.0 l2,2 4,-4" fill="none" stroke="#0E7C86" stroke-width="1.4" stroke-linecap="round"/><text class="tn" x="544.0" y="251" dominant-baseline="central" text-anchor="middle" fill="#0B4F56">Authentication Service</text><text class="ts" x="544.0" y="265" dominant-baseline="central" text-anchor="middle" fill="#0B626A">Token introspection (→ Auth)</text><line x1="340" y1="142" x2="340" y2="152" stroke="#6A7488" stroke-width="1.6"/><polygon points="340.0,152.0 337.3,145.6 342.7,145.6" fill="#6A7488"/><rect x="24" y="314" width="632" height="124" rx="12" fill="#EEF0F4" stroke="#6A7488" stroke-width="1"/><rect x="40.0" y="328.0" width="32" height="32" rx="7" fill="#6A7488" fill-opacity="0.28"/><circle cx="52.0" cy="341.0" r="2.4" fill="#6A7488"/><path d="M48.0,349.0 a4,4 0 0 1 8,0" fill="#6A7488"/><circle cx="60.0" cy="342.0" r="2.0" fill="none" stroke="#6A7488" stroke-width="1.4"/><path d="M56.5,349.0 a3.2,3.2 0 0 1 7,0" fill="none" stroke="#6A7488" stroke-width="1.4"/><text class="th" x="82" y="337" dominant-baseline="central" text-anchor="start" fill="#2A3140">Catalogue Server — Data Stores</text><text class="ts" x="82" y="355" dominant-baseline="central" text-anchor="start" fill="#4A5363">Persistent &amp; streaming stores</text><rect x="40.0" y="374" width="600.0" height="56" rx="7" fill="#FFFFFF" stroke="#6A7488" stroke-width="1"/><rect x="327.0" y="379.0" width="26" height="26" rx="6" fill="#6A7488" fill-opacity="0.22"/><ellipse cx="340.0" cy="388.0" rx="5.6" ry="2.1" fill="none" stroke="#6A7488" stroke-width="1.4"/><path d="M334.4,388.0 V396.0 a7,2.6 0 0 0 14,0 V388.0" fill="none" stroke="#6A7488" stroke-width="1.4"/><path d="M334.4,392.0 a7,2.6 0 0 0 14,0" fill="none" stroke="#6A7488" stroke-width="1.2"/><text class="tn" x="340.0" y="411" dominant-baseline="central" text-anchor="middle" fill="#2A3140">Database</text><text class="ts" x="340.0" y="425" dominant-baseline="central" text-anchor="middle" fill="#4A5363">JSON-LD metadata store</text><line x1="340" y1="302" x2="340" y2="314" stroke="#6A7488" stroke-width="1.6"/><polygon points="340.0,314.0 337.3,307.6 342.7,307.6" fill="#6A7488"/><rect x="120" y="448" width="440" height="24" rx="12" fill="#C95E12" fill-opacity="0.12" stroke="#C95E12" stroke-width="1"/><text class="ts" x="340.0" y="460.0" dominant-baseline="central" text-anchor="middle" fill="#C95E12">Multi-tenant by city / municipal corporation / organisation</text></svg>