<svg viewBox="0 0 680 490" xmlns="http://www.w3.org/2000/svg" font-family="Calibri, 'Segoe UI', 'Liberation Sans', Arial, sans-serif"><style>.th{font-size:14px;font-weight:700}.ts{font-size:11px}.tn{font-size:12.5px;font-weight:700}</style><rect width="680" height="490" fill="#FFFFFF"/><rect x="24" y="24" width="632" height="118" rx="12" fill="#E7EAF3" stroke="#1F3569" stroke-width="1"/><rect x="40.0" y="38.0" width="32" height="32" rx="7" fill="#1F3569" fill-opacity="0.28"/><polygon points="56.0,47.0 63.0,50.0 63.0,56.0 56.0,61.0 49.0,56.0 49.0,50.0" fill="none" stroke="#1F3569" stroke-width="1.4"/><path d="M53.0,54.0 l2,2 4,-4" fill="none" stroke="#1F3569" stroke-width="1.4" stroke-linecap="round"/><text class="th" x="82" y="47" dominant-baseline="central" text-anchor="start" fill="#1F3569">Resource Server — API Gateway</text><text class="ts" x="82" y="65" dominant-baseline="central" text-anchor="start" fill="#3A4A78">Data plane — serves &amp; ingests data per provider policy</text><rect x="190" y="86" width="300" height="32" rx="7" fill="#FFFFFF" stroke="#1F3569" stroke-width="1"/><text class="tn" x="340.0" y="102.0" dominant-baseline="central" text-anchor="middle" fill="#1F3569">API Server (HTTPS · NGSI-LD / REST)</text><rect x="24" y="152" width="632" height="150" rx="12" fill="#E2F1F2" stroke="#0E7C86" stroke-width="1"/><rect x="40.0" y="166.0" width="32" height="32" rx="7" fill="#0E7C86" fill-opacity="0.28"/><circle cx="53.0" cy="182.0" r="2.0" fill="none" stroke="#0E7C86" stroke-width="1.4"/><circle cx="59.0" cy="182.0" r="2.0" fill="none" stroke="#0E7C86" stroke-width="1.4"/><line x1="54.4" y1="180.6" x2="57.6" y2="183.4" stroke="#0E7C86" stroke-width="1.6" stroke-linecap="round"/><line x1="54.4" y1="183.4" x2="57.6" y2="180.6" stroke="#0E7C86" stroke-width="1.6" stroke-linecap="round"/><text class="th" x="82" y="175" dominant-baseline="central" text-anchor="start" fill="#0B4F56">Resource Server — Core Services</text><text class="ts" x="82" y="193" dominant-baseline="central" text-anchor="start" fill="#0B626A">Service-mesh microservices</text><rect x="40.0" y="214" width="141.0" height="72" rx="7" fill="#FFFFFF" stroke="#0E7C86" stroke-width="1"/><rect x="97.5" y="219.0" width="26" height="26" rx="6" fill="#0E7C86" fill-opacity="0.22"/><circle cx="109.3" cy="230.8" r="3.6" fill="none" stroke="#0E7C86" stroke-width="1.4"/><line x1="112.1" y1="233.6" x2="115.3" y2="236.8" stroke="#0E7C86" stroke-width="1.8" stroke-linecap="round"/><text class="tn" x="110.5" y="251" dominant-baseline="central" text-anchor="middle" fill="#0B4F56">DB Search Service</text><text class="ts" x="110.5" y="265" dominant-baseline="central" text-anchor="middle" fill="#0B626A">Attribute · geo · text · complex</text><rect x="193.0" y="214" width="141.0" height="72" rx="7" fill="#FFFFFF" stroke="#0E7C86" stroke-width="1"/><rect x="250.5" y="219.0" width="26" height="26" rx="6" fill="#0E7C86" fill-opacity="0.22"/><path d="M258.7,229.6 q3,-3 6,0 t6,0" fill="none" stroke="#0E7C86" stroke-width="1.3"/><path d="M258.7,232.0 q3,-3 6,0 t6,0" fill="none" stroke="#0E7C86" stroke-width="1.3"/><path d="M258.7,234.4 q3,-3 6,0 t6,0" fill="none" stroke="#0E7C86" stroke-width="1.3"/><text class="tn" x="263.5" y="251" dominant-baseline="central" text-anchor="middle" fill="#0B4F56">Data Broker Service</text><text class="ts" x="263.5" y="265" dominant-baseline="central" text-anchor="middle" fill="#0B626A">Exchanges · queues · subs</text><rect x="346.0" y="214" width="141.0" height="72" rx="7" fill="#FFFFFF" stroke="#0E7C86" stroke-width="1"/><rect x="403.5" y="219.0" width="26" height="26" rx="6" fill="#0E7C86" fill-opacity="0.22"/><polygon points="416.5,226.4 422.1,228.8 422.1,233.6 416.5,237.6 410.9,233.6 410.9,228.8" fill="none" stroke="#0E7C86" stroke-width="1.4"/><path d="M414.1,232.0 l2,2 4,-4" fill="none" stroke="#0E7C86" stroke-width="1.4" stroke-linecap="round"/><text class="tn" x="416.5" y="251" dominant-baseline="central" text-anchor="middle" fill="#0B4F56">Authentication Service</text><text class="ts" x="416.5" y="265" dominant-baseline="central" text-anchor="middle" fill="#0B626A">Token introspection (→ Auth)</text><rect x="499.0" y="214" width="141.0" height="72" rx="7" fill="#FFFFFF" stroke="#0E7C86" stroke-width="1"/><rect x="556.5" y="219.0" width="26" height="26" rx="6" fill="#0E7C86" fill-opacity="0.22"/><path d="M564.7,230.0 h10 l-3,-3 M574.3,234.0 h-10 l3,3" fill="none" stroke="#0E7C86" stroke-width="1.5" stroke-linecap="round" stroke-linejoin="round"/><text class="tn" x="569.5" y="251" dominant-baseline="central" text-anchor="middle" fill="#0B4F56">DB Connector Service</text><text class="ts" x="569.5" y="265" dominant-baseline="central" text-anchor="middle" fill="#0B626A">Broker ↔ database routing</text><line x1="340" y1="142" x2="340" y2="152" stroke="#6A7488" stroke-width="1.6"/><polygon points="340.0,152.0 337.3,145.6 342.7,145.6" fill="#6A7488"/><rect x="24" y="314" width="632" height="124" rx="12" fill="#EEF0F4" stroke="#6A7488" stroke-width="1"/><rect x="40.0" y="328.0" width="32" height="32" rx="7" fill="#6A7488" fill-opacity="0.28"/><circle cx="52.0" cy="341.0" r="2.4" fill="#6A7488"/><path d="M48.0,349.0 a4,4 0 0 1 8,0" fill="#6A7488"/><circle cx="60.0" cy="342.0" r="2.0" fill="none" stroke="#6A7488" stroke-width="1.4"/><path d="M56.5,349.0 a3.2,3.2 0 0 1 7,0" fill="none" stroke="#6A7488" stroke-width="1.4"/><text class="th" x="82" y="337" dominant-baseline="central" text-anchor="start" fill="#2A3140">Resource Server — Data Stores</text><text class="ts" x="82" y="355" dominant-baseline="central" text-anchor="start" fill="#4A5363">Persistent &amp; streaming stores</text><rect x="40.0" y="374" width="293.0" height="56" rx="7" fill="#FFFFFF" stroke="#6A7488" stroke-width="1"/><rect x="173.5" y="379.0" width="26" height="26" rx="6" fill="#6A7488" fill-opacity="0.22"/><ellipse cx="186.5" cy="388.0" rx="5.6" ry="2.1" fill="none" stroke="#6A7488" stroke-width="1.4"/><path d="M180.9,388.0 V396.0 a7,2.6 0 0 0 14,0 V388.0" fill="none" stroke="#6A7488" stroke-width="1.4"/><path d="M180.9,392.0 a7,2.6 0 0 0 14,0" fill="none" stroke="#6A7488" stroke-width="1.2"/><text class="tn" x="186.5" y="411" dominant-baseline="central" text-anchor="middle" fill="#2A3140">Database</text><text class="ts" x="186.5" y="425" dominant-baseline="central" text-anchor="middle" fill="#4A5363">Search &amp; temporal store</text><rect x="347.0" y="374" width="293.0" height="56" rx="7" fill="#FFFFFF" stroke="#6A7488" stroke-width="1"/><rect x="480.5" y="379.0" width="26" height="26" rx="6" fill="#6A7488" fill-opacity="0.22"/><path d="M488.7,389.6 q3,-3 6,0 t6,0" fill="none" stroke="#6A7488" stroke-width="1.3"/><path d="M488.7,392.0 q3,-3 6,0 t6,0" fill="none" stroke="#6A7488" stroke-width="1.3"/><path d="M488.7,394.4 q3,-3 6,0 t6,0" fill="none" stroke="#6A7488" stroke-width="1.3"/><text class="tn" x="493.5" y="411" dominant-baseline="central" text-anchor="middle" fill="#2A3140">Data Broker</text><text class="ts" x="493.5" y="425" dominant-baseline="central" text-anchor="middle" fill="#4A5363">Streaming / pub-sub</text><line x1="340" y1="302" x2="340" y2="314" stroke="#6A7488" stroke-width="1.6"/><polygon points="340.0,314.0 337.3,307.6 342.7,307.6" fill="#6A7488"/><rect x="120" y="448" width="440" height="24" rx="12" fill="#C95E12" fill-opacity="0.12" stroke="#C95E12" stroke-width="1"/><text class="ts" x="340.0" y="460.0" dominant-baseline="central" text-anchor="middle" fill="#C95E12">Multi-tenant by provider — resource &amp; group IDs encode the provider</text></svg>