<svg viewBox="0 0 680 748" xmlns="http://www.w3.org/2000/svg" font-family="Calibri, 'Segoe UI', 'Liberation Sans', Arial, sans-serif"><style>.th{font-size:14px;font-weight:700}.ts{font-size:11px}.tn{font-size:12.5px;font-weight:700}</style><rect width="680" height="748" fill="#FFFFFF"/><rect x="24" y="24" width="632" height="118" rx="12" fill="#EEF0F4" stroke="#6A7488" stroke-width="1"/><rect x="40.0" y="38.0" width="32" height="32" rx="7" fill="#6A7488" fill-opacity="0.28"/><circle cx="52.0" cy="51.0" r="2.4" fill="#6A7488"/><path d="M48.0,59.0 a4,4 0 0 1 8,0" fill="#6A7488"/><circle cx="60.0" cy="52.0" r="2.0" fill="none" stroke="#6A7488" stroke-width="1.4"/><path d="M56.5,59.0 a3.2,3.2 0 0 1 7,0" fill="none" stroke="#6A7488" stroke-width="1.4"/><text class="th" x="82" y="47" dominant-baseline="central" text-anchor="start" fill="#2A3140">Real-World Data Sources</text><text class="ts" x="82" y="65" dominant-baseline="central" text-anchor="start" fill="#4A5363">Weather, market, transit, IoT, public services &amp; more</text><rect x="40.0" y="86" width="112.0" height="48" rx="7" fill="#FFFFFF" stroke="#6A7488" stroke-width="1"/><text class="tn" x="96.0" y="110.0" dominant-baseline="central" text-anchor="middle" fill="#2A3140">Weather</text><rect x="162.0" y="86" width="112.0" height="48" rx="7" fill="#FFFFFF" stroke="#6A7488" stroke-width="1"/><text class="tn" x="218.0" y="110.0" dominant-baseline="central" text-anchor="middle" fill="#2A3140">Market info</text><rect x="284.0" y="86" width="112.0" height="48" rx="7" fill="#FFFFFF" stroke="#6A7488" stroke-width="1"/><text class="tn" x="340.0" y="110.0" dominant-baseline="central" text-anchor="middle" fill="#2A3140">Transit</text><rect x="406.0" y="86" width="112.0" height="48" rx="7" fill="#FFFFFF" stroke="#6A7488" stroke-width="1"/><text class="tn" x="462.0" y="110.0" dominant-baseline="central" text-anchor="middle" fill="#2A3140">IoT &amp; sensors</text><rect x="528.0" y="86" width="112.0" height="48" rx="7" fill="#FFFFFF" stroke="#6A7488" stroke-width="1"/><text class="tn" x="584.0" y="110.0" dominant-baseline="central" text-anchor="middle" fill="#2A3140">Public services</text><line x1="340" y1="142" x2="340" y2="154" stroke="#6A7488" stroke-width="1.6"/><polygon points="340.0,154.0 337.3,147.6 342.7,147.6" fill="#6A7488"/><rect x="24" y="156" width="632" height="98" rx="12" fill="#E2F1F2" stroke="#0E7C86" stroke-width="1"/><rect x="40.0" y="170.0" width="32" height="32" rx="7" fill="#0E7C86" fill-opacity="0.28"/><circle cx="53.0" cy="186.0" r="2.0" fill="none" stroke="#0E7C86" stroke-width="1.4"/><circle cx="59.0" cy="186.0" r="2.0" fill="none" stroke="#0E7C86" stroke-width="1.4"/><line x1="54.4" y1="184.6" x2="57.6" y2="187.4" stroke="#0E7C86" stroke-width="1.6" stroke-linecap="round"/><line x1="54.4" y1="187.4" x2="57.6" y2="184.6" stroke="#0E7C86" stroke-width="1.6" stroke-linecap="round"/><text class="th" x="82" y="179" dominant-baseline="central" text-anchor="start" fill="#0B4F56">Ingestion — Data Ingestion Adaptors</text><text class="ts" x="82" y="197" dominant-baseline="central" text-anchor="start" fill="#0B626A">Streaming · spatial · temporal · structured files · databases</text><rect x="150" y="216" width="170" height="30" rx="7" fill="#FFFFFF" stroke="#0E7C86" stroke-width="1"/><text class="tn" x="235.0" y="231.0" dominant-baseline="central" text-anchor="middle" fill="#0B4F56">Pull via provider API</text><rect x="360" y="216" width="170" height="30" rx="7" fill="#FFFFFF" stroke="#0E7C86" stroke-width="1"/><text class="tn" x="445.0" y="231.0" dominant-baseline="central" text-anchor="middle" fill="#0B4F56">Push via message broker</text><line x1="340" y1="254" x2="340" y2="266" stroke="#6A7488" stroke-width="1.6"/><polygon points="340.0,266.0 337.3,259.6 342.7,259.6" fill="#6A7488"/><rect x="24" y="268" width="632" height="164" rx="12" fill="#E7EAF3" stroke="#1F3569" stroke-width="1"/><rect x="40.0" y="282.0" width="32" height="32" rx="7" fill="#1F3569" fill-opacity="0.28"/><polygon points="56.0,291.0 63.0,294.0 63.0,300.0 56.0,305.0 49.0,300.0 49.0,294.0" fill="none" stroke="#1F3569" stroke-width="1.4"/><path d="M53.0,298.0 l2,2 4,-4" fill="none" stroke="#1F3569" stroke-width="1.4" stroke-linecap="round"/><text class="th" x="82" y="291" dominant-baseline="central" text-anchor="start" fill="#1F3569">Resource Server</text><text class="ts" x="82" y="309" dominant-baseline="central" text-anchor="start" fill="#3A4A78">REST APIs · policy enforcement · logging &amp; audit</text><rect x="40.0" y="330" width="292.0" height="58" rx="7" fill="#FFFFFF" stroke="#1F3569" stroke-width="1"/><rect x="173.0" y="335.0" width="26" height="26" rx="6" fill="#1F3569" fill-opacity="0.22"/><ellipse cx="186.0" cy="344.0" rx="5.6" ry="2.1" fill="none" stroke="#1F3569" stroke-width="1.4"/><path d="M180.4,344.0 V352.0 a7,2.6 0 0 0 14,0 V344.0" fill="none" stroke="#1F3569" stroke-width="1.4"/><path d="M180.4,348.0 a7,2.6 0 0 0 14,0" fill="none" stroke="#1F3569" stroke-width="1.2"/><text class="tn" x="186.0" y="367" dominant-baseline="central" text-anchor="middle" fill="#1F3569">Data Ingestion Mode</text><text class="ts" x="186.0" y="381" dominant-baseline="central" text-anchor="middle" fill="#3A4A78">Providers push datasets</text><rect x="348.0" y="330" width="292.0" height="58" rx="7" fill="#FFFFFF" stroke="#1F3569" stroke-width="1"/><rect x="481.0" y="335.0" width="26" height="26" rx="6" fill="#1F3569" fill-opacity="0.22"/><path d="M489.2,346.0 h10 l-3,-3 M498.8,350.0 h-10 l3,3" fill="none" stroke="#1F3569" stroke-width="1.5" stroke-linecap="round" stroke-linejoin="round"/><text class="tn" x="494.0" y="367" dominant-baseline="central" text-anchor="middle" fill="#1F3569">API Gateway Mode</text><text class="ts" x="494.0" y="381" dominant-baseline="central" text-anchor="middle" fill="#3A4A78">Fetch on-the-fly</text><rect x="40.0" y="398" width="112.0" height="22" rx="11" fill="#1F3569" fill-opacity="0.12" stroke="#1F3569" stroke-width="1"/><text class="ts" x="96.0" y="409.0" dominant-baseline="central" text-anchor="middle" fill="#1F3569">Authentication</text><rect x="160.0" y="398" width="112.0" height="22" rx="11" fill="#1F3569" fill-opacity="0.12" stroke="#1F3569" stroke-width="1"/><text class="ts" x="216.0" y="409.0" dominant-baseline="central" text-anchor="middle" fill="#1F3569">Authorization</text><rect x="280.0" y="398" width="112.0" height="22" rx="11" fill="#1F3569" fill-opacity="0.12" stroke="#1F3569" stroke-width="1"/><text class="ts" x="336.0" y="409.0" dominant-baseline="central" text-anchor="middle" fill="#1F3569">Rate limiting</text><rect x="400.0" y="398" width="112.0" height="22" rx="11" fill="#1F3569" fill-opacity="0.12" stroke="#1F3569" stroke-width="1"/><text class="ts" x="456.0" y="409.0" dominant-baseline="central" text-anchor="middle" fill="#1F3569">Monitoring</text><rect x="520.0" y="398" width="112.0" height="22" rx="11" fill="#1F3569" fill-opacity="0.12" stroke="#1F3569" stroke-width="1"/><text class="ts" x="576.0" y="409.0" dominant-baseline="central" text-anchor="middle" fill="#1F3569">Audit logging</text><line x1="340" y1="432" x2="340" y2="444" stroke="#6A7488" stroke-width="1.6"/><polygon points="340.0,444.0 337.3,437.6 342.7,437.6" fill="#6A7488"/><rect x="24" y="446" width="632" height="124" rx="12" fill="#E2F1F2" stroke="#0E7C86" stroke-width="1"/><rect x="40.0" y="460.0" width="32" height="32" rx="7" fill="#0E7C86" fill-opacity="0.28"/><circle cx="53.0" cy="476.0" r="2.0" fill="none" stroke="#0E7C86" stroke-width="1.4"/><circle cx="59.0" cy="476.0" r="2.0" fill="none" stroke="#0E7C86" stroke-width="1.4"/><line x1="54.4" y1="474.6" x2="57.6" y2="477.4" stroke="#0E7C86" stroke-width="1.6" stroke-linecap="round"/><line x1="54.4" y1="477.4" x2="57.6" y2="474.6" stroke="#0E7C86" stroke-width="1.6" stroke-linecap="round"/><text class="th" x="82" y="469" dominant-baseline="central" text-anchor="start" fill="#0B4F56">Egress — Data Access</text><text class="ts" x="82" y="487" dominant-baseline="central" text-anchor="start" fill="#0B626A">Multiple ways to access and consume data</text><rect x="40.0" y="508" width="190.66666666666666" height="56" rx="7" fill="#FFFFFF" stroke="#0E7C86" stroke-width="1"/><rect x="122.33333333333331" y="513.0" width="26" height="26" rx="6" fill="#0E7C86" fill-opacity="0.22"/><circle cx="134.1" cy="524.8" r="3.6" fill="none" stroke="#0E7C86" stroke-width="1.4"/><line x1="136.9" y1="527.6" x2="140.1" y2="530.8" stroke="#0E7C86" stroke-width="1.8" stroke-linecap="round"/><text class="tn" x="135.33333333333331" y="545" dominant-baseline="central" text-anchor="middle" fill="#0B4F56">Data Query APIs</text><text class="ts" x="135.33333333333331" y="559" dominant-baseline="central" text-anchor="middle" fill="#0B626A">Search &amp; filter</text><rect x="244.66666666666666" y="508" width="190.66666666666666" height="56" rx="7" fill="#FFFFFF" stroke="#0E7C86" stroke-width="1"/><rect x="327.0" y="513.0" width="26" height="26" rx="6" fill="#0E7C86" fill-opacity="0.22"/><path d="M335.2,523.6 q3,-3 6,0 t6,0" fill="none" stroke="#0E7C86" stroke-width="1.3"/><path d="M335.2,526.0 q3,-3 6,0 t6,0" fill="none" stroke="#0E7C86" stroke-width="1.3"/><path d="M335.2,528.4 q3,-3 6,0 t6,0" fill="none" stroke="#0E7C86" stroke-width="1.3"/><text class="tn" x="340.0" y="545" dominant-baseline="central" text-anchor="middle" fill="#0B4F56">Data Streaming</text><text class="ts" x="340.0" y="559" dominant-baseline="central" text-anchor="middle" fill="#0B626A">Real-time</text><rect x="449.3333333333333" y="508" width="190.66666666666666" height="56" rx="7" fill="#FFFFFF" stroke="#0E7C86" stroke-width="1"/><rect x="531.6666666666666" y="513.0" width="26" height="26" rx="6" fill="#0E7C86" fill-opacity="0.22"/><rect x="541.1" y="521.2" width="7.2" height="9.6" rx="1" fill="none" stroke="#0E7C86" stroke-width="1.4"/><line x1="543.1" y1="523.6" x2="546.3" y2="523.6" stroke="#0E7C86" stroke-width="1.6" stroke-linecap="round"/><line x1="543.1" y1="526.0" x2="546.3" y2="526.0" stroke="#0E7C86" stroke-width="1.6" stroke-linecap="round"/><line x1="543.1" y1="528.4" x2="546.3" y2="528.4" stroke="#0E7C86" stroke-width="1.6" stroke-linecap="round"/><text class="tn" x="544.6666666666666" y="545" dominant-baseline="central" text-anchor="middle" fill="#0B4F56">File Downloads</text><text class="ts" x="544.6666666666666" y="559" dominant-baseline="central" text-anchor="middle" fill="#0B626A">ZIPs &amp; keys</text><line x1="340" y1="570" x2="340" y2="582" stroke="#6A7488" stroke-width="1.6"/><polygon points="340.0,582.0 337.3,575.6 342.7,575.6" fill="#6A7488"/><rect x="24" y="584" width="632" height="118" rx="12" fill="#EEF0F4" stroke="#6A7488" stroke-width="1"/><rect x="40.0" y="598.0" width="32" height="32" rx="7" fill="#6A7488" fill-opacity="0.28"/><circle cx="52.0" cy="611.0" r="2.4" fill="#6A7488"/><path d="M48.0,619.0 a4,4 0 0 1 8,0" fill="#6A7488"/><circle cx="60.0" cy="612.0" r="2.0" fill="none" stroke="#6A7488" stroke-width="1.4"/><path d="M56.5,619.0 a3.2,3.2 0 0 1 7,0" fill="none" stroke="#6A7488" stroke-width="1.4"/><text class="th" x="82" y="607" dominant-baseline="central" text-anchor="start" fill="#2A3140">Data Consumers</text><text class="ts" x="82" y="625" dominant-baseline="central" text-anchor="start" fill="#4A5363">Applications, dashboards, analytics &amp; external systems</text><rect x="40.0" y="646" width="141.0" height="48" rx="7" fill="#FFFFFF" stroke="#6A7488" stroke-width="1"/><text class="tn" x="110.5" y="670.0" dominant-baseline="central" text-anchor="middle" fill="#2A3140">Applications</text><rect x="193.0" y="646" width="141.0" height="48" rx="7" fill="#FFFFFF" stroke="#6A7488" stroke-width="1"/><text class="tn" x="263.5" y="670.0" dominant-baseline="central" text-anchor="middle" fill="#2A3140">Dashboards</text><rect x="346.0" y="646" width="141.0" height="48" rx="7" fill="#FFFFFF" stroke="#6A7488" stroke-width="1"/><text class="tn" x="416.5" y="670.0" dominant-baseline="central" text-anchor="middle" fill="#2A3140">Analytics</text><rect x="499.0" y="646" width="141.0" height="48" rx="7" fill="#FFFFFF" stroke="#6A7488" stroke-width="1"/><text class="tn" x="569.5" y="670.0" dominant-baseline="central" text-anchor="middle" fill="#2A3140">External systems</text><rect x="140" y="714" width="400" height="26" rx="13" fill="#C95E12" fill-opacity="0.12" stroke="#C95E12" stroke-width="1"/><text class="ts" x="340.0" y="727.0" dominant-baseline="central" text-anchor="middle" fill="#C95E12">Consent-based · token-validated · fully logged &amp; governed</text></svg>