<svg viewBox="0 0 720 574" xmlns="http://www.w3.org/2000/svg" font-family="Calibri, 'Segoe UI', 'Liberation Sans', Arial, sans-serif"><style>.th{font-size:14px;font-weight:700}.ts{font-size:11px}.tn{font-size:12.5px;font-weight:700}</style><rect width="720" height="574" fill="#FFFFFF"/><rect x="20" y="20" width="680" height="162" rx="12" fill="#FCEEDF" stroke="#C95E12" stroke-width="1"/><rect x="36.0" y="34.0" width="32" height="32" rx="7" fill="#C95E12" fill-opacity="0.28"/><path d="M52.0,43.0 l7,3 v5 c0,4.5 -3,7.5 -7,9 c-4,-1.5 -7,-4.5 -7,-9 v-5 z" fill="none" stroke="#C95E12" stroke-width="1.4" stroke-linejoin="round"/><path d="M49.0,50.0 l2,2 4,-4" fill="none" stroke="#C95E12" stroke-width="1.4" stroke-linecap="round" stroke-linejoin="round"/><text class="th" x="78" y="43" dominant-baseline="central" text-anchor="start" fill="#7A3A0A">Data Consumers</text><text class="ts" x="78" y="61" dominant-baseline="central" text-anchor="start" fill="#9A4A10">Applications and platforms that use exchange data</text><rect x="44" y="80" width="300" height="88" rx="7" fill="#FFFFFF" stroke="#1F3569" stroke-width="1"/><rect x="52.0" y="90.0" width="28" height="28" rx="6" fill="#1F3569" fill-opacity="0.22"/><rect x="60.9" y="98.9" width="10.2" height="10.2" rx="1" fill="none" stroke="#1F3569" stroke-width="1.4"/><line x1="64.3" y1="101.5" x2="64.3" y2="101.5" stroke="#1F3569" stroke-width="1.6" stroke-linecap="round"/><rect x="63.0" y="105.3" width="2.1" height="3.8" fill="#1F3569"/><rect x="63.0" y="101.0" width="1.7" height="1.7" fill="none" stroke="#1F3569" stroke-width="1"/><rect x="67.3" y="101.0" width="1.7" height="1.7" fill="none" stroke="#1F3569" stroke-width="1"/><text class="tn" x="88" y="98" dominant-baseline="central" text-anchor="start" fill="#1F3569">Industry / Startup</text><text class="ts" x="88" y="114" dominant-baseline="central" text-anchor="start" fill="#3A4A78">AI/ML apps · agri-market &amp; mobile</text><rect x="112" y="140" width="164" height="20" rx="10" fill="#C95E12" fill-opacity="0.12" stroke="#C95E12" stroke-width="1"/><text class="ts" x="194.0" y="150.0" dominant-baseline="central" text-anchor="middle" fill="#C95E12">Connector</text><rect x="376" y="80" width="300" height="88" rx="7" fill="#FFFFFF" stroke="#1F3569" stroke-width="1"/><rect x="384.0" y="90.0" width="28" height="28" rx="6" fill="#1F3569" fill-opacity="0.22"/><circle cx="394.6" cy="101.5" r="2.0" fill="#1F3569"/><path d="M391.2,108.2 a4,4 0 0 1 8,0" fill="#1F3569"/><circle cx="401.4" cy="102.3" r="1.7" fill="none" stroke="#1F3569" stroke-width="1.4"/><path d="M398.4,108.2 a3.2,3.2 0 0 1 7,0" fill="none" stroke="#1F3569" stroke-width="1.4"/><text class="tn" x="420" y="98" dominant-baseline="central" text-anchor="start" fill="#1F3569">Smart eGovernance</text><text class="ts" x="420" y="114" dominant-baseline="central" text-anchor="start" fill="#3A4A78">Welfare schemes · data lake</text><rect x="444" y="140" width="164" height="20" rx="10" fill="#C95E12" fill-opacity="0.12" stroke="#C95E12" stroke-width="1"/><text class="ts" x="526.0" y="150.0" dominant-baseline="central" text-anchor="middle" fill="#C95E12">Connector</text><line x1="345" y1="182" x2="345" y2="250" stroke="#6A7488" stroke-width="1.6"/><polygon points="345.0,250.0 342.3,243.6 347.7,243.6" fill="#6A7488"/><polygon points="345.0,182.0 347.7,188.4 342.3,188.4" fill="#6A7488"/><text class="ts" x="359" y="214" dominant-baseline="central" text-anchor="start" fill="#1F3569">Control APIs</text><line x1="572" y1="182" x2="572" y2="250" stroke="#6A7488" stroke-width="1.6"/><polygon points="572.0,250.0 569.3,243.6 574.7,243.6" fill="#6A7488"/><polygon points="572.0,182.0 574.7,188.4 569.3,188.4" fill="#6A7488"/><text class="ts" x="586" y="214" dominant-baseline="central" text-anchor="start" fill="#0B626A">Data APIs</text><rect x="20" y="252" width="680" height="150" rx="12" fill="#E6F3EC" stroke="#1E8E5A" stroke-width="1"/><text class="th" x="48" y="332" dominant-baseline="central" text-anchor="start" fill="#1F3569">IUDX</text><text class="ts" x="48" y="352" dominant-baseline="central" text-anchor="start" fill="#176E46">Intelligent Universal</text><text class="ts" x="48" y="367" dominant-baseline="central" text-anchor="start" fill="#176E46">Data Exchange</text><rect x="250" y="302" width="190" height="78" rx="7" fill="#FFFFFF" stroke="#1F3569" stroke-width="1"/><rect x="332.0" y="307.0" width="26" height="26" rx="6" fill="#1F3569" fill-opacity="0.22"/><polygon points="345.0,314.4 350.6,316.8 350.6,321.6 345.0,325.6 339.4,321.6 339.4,316.8" fill="none" stroke="#1F3569" stroke-width="1.4"/><path d="M342.6,320.0 l2,2 4,-4" fill="none" stroke="#1F3569" stroke-width="1.4" stroke-linecap="round"/><text class="tn" x="345.0" y="339" dominant-baseline="central" text-anchor="middle" fill="#1F3569">Control Plane</text><text class="ts" x="345.0" y="353" dominant-baseline="central" text-anchor="middle" fill="#3A4A78">Discovery · consent · identity</text><rect x="477" y="302" width="190" height="78" rx="7" fill="#FFFFFF" stroke="#0E7C86" stroke-width="1"/><rect x="559.0" y="307.0" width="26" height="26" rx="6" fill="#0E7C86" fill-opacity="0.22"/><ellipse cx="572.0" cy="316.0" rx="5.6" ry="2.1" fill="none" stroke="#0E7C86" stroke-width="1.4"/><path d="M566.4,316.0 V324.0 a7,2.6 0 0 0 14,0 V316.0" fill="none" stroke="#0E7C86" stroke-width="1.4"/><path d="M566.4,320.0 a7,2.6 0 0 0 14,0" fill="none" stroke="#0E7C86" stroke-width="1.2"/><text class="tn" x="572.0" y="339" dominant-baseline="central" text-anchor="middle" fill="#0B4F56">Data Plane</text><text class="ts" x="572.0" y="353" dominant-baseline="central" text-anchor="middle" fill="#0B626A">Resource access · audit</text><line x1="345" y1="404" x2="345" y2="470" stroke="#6A7488" stroke-width="1.6"/><polygon points="345.0,470.0 342.3,463.6 347.7,463.6" fill="#6A7488"/><polygon points="345.0,404.0 347.7,410.4 342.3,410.4" fill="#6A7488"/><text class="ts" x="359" y="437" dominant-baseline="central" text-anchor="start" fill="#1F3569">Control APIs</text><line x1="572" y1="404" x2="572" y2="470" stroke="#6A7488" stroke-width="1.6"/><polygon points="572.0,470.0 569.3,463.6 574.7,463.6" fill="#6A7488"/><polygon points="572.0,404.0 574.7,410.4 569.3,410.4" fill="#6A7488"/><text class="ts" x="586" y="437" dominant-baseline="central" text-anchor="start" fill="#0B626A">Data APIs</text><rect x="20" y="472" width="680" height="84" rx="12" fill="#EEF0F4" stroke="#6A7488" stroke-width="1"/><text class="ts" x="40" y="490" dominant-baseline="central" text-anchor="start" fill="#4A5363">Data Sources &amp; Providers</text><rect x="40.0" y="502" width="152.5" height="44" rx="7" fill="#FFFFFF" stroke="#6A7488" stroke-width="1"/><rect x="103.25" y="503.96000000000004" width="26" height="26" rx="6" fill="#6A7488" fill-opacity="0.22"/><polygon points="116.2,511.4 117.8,515.4 121.8,517.0 117.8,518.6 116.2,522.6 114.7,518.6 110.7,517.0 114.7,515.4" fill="#6A7488" stroke="#6A7488" stroke-width="1.4"/><text class="tn" x="116.25" y="534.56" dominant-baseline="central" text-anchor="middle" fill="#2A3140">Crop Surveillance</text><rect x="202.5" y="502" width="152.5" height="44" rx="7" fill="#FFFFFF" stroke="#6A7488" stroke-width="1"/><rect x="265.75" y="503.96000000000004" width="26" height="26" rx="6" fill="#6A7488" fill-opacity="0.22"/><path d="M273.1,519.4 a4,4 0 0 1 1,-7.8 a5,5 0 0 1 9.5,-1 a3.5,3.5 0 0 1 0.5,8.8 z" fill="none" stroke="#6A7488" stroke-width="1.4"/><text class="tn" x="278.75" y="534.56" dominant-baseline="central" text-anchor="middle" fill="#2A3140">Weather &amp; Soil Health</text><rect x="365.0" y="502" width="152.5" height="44" rx="7" fill="#FFFFFF" stroke="#6A7488" stroke-width="1"/><rect x="428.25" y="503.96000000000004" width="26" height="26" rx="6" fill="#6A7488" fill-opacity="0.22"/><rect x="436.4" y="512.2" width="9.6" height="9.6" rx="1" fill="none" stroke="#6A7488" stroke-width="1.4"/><line x1="439.6" y1="514.6" x2="439.6" y2="514.6" stroke="#6A7488" stroke-width="1.6" stroke-linecap="round"/><rect x="438.4" y="518.2" width="2.0" height="3.6" fill="#6A7488"/><rect x="438.4" y="514.2" width="1.6" height="1.6" fill="none" stroke="#6A7488" stroke-width="1"/><rect x="442.4" y="514.2" width="1.6" height="1.6" fill="none" stroke="#6A7488" stroke-width="1"/><text class="tn" x="441.25" y="534.56" dominant-baseline="central" text-anchor="middle" fill="#2A3140">Land Extent &amp; Ownership</text><rect x="527.5" y="502" width="152.5" height="44" rx="7" fill="#FFFFFF" stroke="#6A7488" stroke-width="1"/><rect x="590.75" y="503.96000000000004" width="26" height="26" rx="6" fill="#6A7488" fill-opacity="0.22"/><path d="M603.8,521.8 C599.8,517.0 599.8,512.2 603.8,512.2 C607.8,512.2 607.8,517.0 603.8,521.8 z" fill="none" stroke="#6A7488" stroke-width="1.4"/><circle cx="603.8" cy="515.4" r="1.4" fill="#6A7488"/><text class="tn" x="603.75" y="534.56" dominant-baseline="central" text-anchor="middle" fill="#2A3140">Satellite Imagery</text></svg>