<svg viewBox="0 0 680 512" xmlns="http://www.w3.org/2000/svg" font-family="Calibri, 'Segoe UI', 'Liberation Sans', Arial, sans-serif"><style>.th{font-size:14px;font-weight:700}.ts{font-size:11px}.tn{font-size:12.5px;font-weight:700}</style><rect width="680" height="512" fill="#FFFFFF"/><rect x="235" y="26" width="210" height="58" rx="7" fill="#FFFFFF" stroke="#6A7488" stroke-width="1"/><rect x="243.0" y="36.0" width="28" height="28" rx="6" fill="#6A7488" fill-opacity="0.22"/><circle cx="253.6" cy="47.5" r="2.0" fill="#6A7488"/><path d="M250.2,54.2 a4,4 0 0 1 8,0" fill="#6A7488"/><circle cx="260.4" cy="48.3" r="1.7" fill="none" stroke="#6A7488" stroke-width="1.4"/><path d="M257.4,54.2 a3.2,3.2 0 0 1 7,0" fill="none" stroke="#6A7488" stroke-width="1.4"/><text class="tn" x="279" y="44" dominant-baseline="central" text-anchor="start" fill="#2A3140">Data Consumer Applications</text><text class="ts" x="279" y="60" dominant-baseline="central" text-anchor="start" fill="#4A5363">Consumer</text><rect x="24" y="148" width="632" height="212" rx="12" fill="#E7EAF3" stroke="#1F3569" stroke-width="1"/><text class="th" x="44" y="166" dominant-baseline="central" text-anchor="start" fill="#1F3569">IUDX</text><rect x="96" y="194" width="220" height="148" rx="7" fill="#FFFFFF" stroke="#1F3569" stroke-width="1"/><rect x="104.0" y="204.0" width="28" height="28" rx="6" fill="#1F3569" fill-opacity="0.22"/><polygon points="118.0,212.1 124.0,214.6 124.0,219.7 118.0,223.9 112.0,219.7 112.0,214.6" fill="none" stroke="#1F3569" stroke-width="1.4"/><path d="M115.5,218.0 l2,2 4,-4" fill="none" stroke="#1F3569" stroke-width="1.4" stroke-linecap="round"/><text class="tn" x="140" y="212" dominant-baseline="central" text-anchor="start" fill="#1F3569">Control Plane</text><text class="ts" x="140" y="228" dominant-baseline="central" text-anchor="start" fill="#3A4A78">Discovery · Consent · Identity</text><text class="ts" x="108" y="248" dominant-baseline="central" text-anchor="start" fill="#3A4A78">Catalogue, AAA,</text><text class="ts" x="108" y="263" dominant-baseline="central" text-anchor="start" fill="#3A4A78">Consent Validator,</text><text class="ts" x="108" y="278" dominant-baseline="central" text-anchor="start" fill="#3A4A78">User &amp; policy mgmt</text><rect x="372" y="210" width="210" height="116" rx="7" fill="#FFFFFF" stroke="#0E7C86" stroke-width="1"/><rect x="380.0" y="220.0" width="28" height="28" rx="6" fill="#0E7C86" fill-opacity="0.22"/><ellipse cx="394" cy="229.8" rx="6.0" ry="2.2" fill="none" stroke="#0E7C86" stroke-width="1.4"/><path d="M388.1,229.8 V238.2 a7,2.6 0 0 0 14,0 V229.8" fill="none" stroke="#0E7C86" stroke-width="1.4"/><path d="M388.1,234.0 a7,2.6 0 0 0 14,0" fill="none" stroke="#0E7C86" stroke-width="1.2"/><text class="tn" x="416" y="228" dominant-baseline="central" text-anchor="start" fill="#0B4F56">Data Plane</text><text class="ts" x="416" y="244" dominant-baseline="central" text-anchor="start" fill="#0B626A">Resource access</text><text class="ts" x="384" y="264" dominant-baseline="central" text-anchor="start" fill="#0B626A">Resource Server(s),</text><text class="ts" x="384" y="279" dominant-baseline="central" text-anchor="start" fill="#0B626A">logging &amp; metering</text><rect x="265" y="386" width="150" height="50" rx="7" fill="#FFFFFF" stroke="#6A7488" stroke-width="1"/><rect x="273.0" y="396.0" width="28" height="28" rx="6" fill="#6A7488" fill-opacity="0.22"/><rect x="281.9" y="404.9" width="10.2" height="10.2" rx="1" fill="none" stroke="#6A7488" stroke-width="1.4"/><line x1="285.3" y1="407.4" x2="285.3" y2="407.4" stroke="#6A7488" stroke-width="1.6" stroke-linecap="round"/><rect x="284.0" y="411.3" width="2.1" height="3.8" fill="#6A7488"/><rect x="284.0" y="407.0" width="1.7" height="1.7" fill="none" stroke="#6A7488" stroke-width="1"/><rect x="288.3" y="407.0" width="1.7" height="1.7" fill="none" stroke="#6A7488" stroke-width="1"/><text class="tn" x="309" y="404" dominant-baseline="central" text-anchor="start" fill="#2A3140">Data Provider</text><text class="ts" x="309" y="420" dominant-baseline="central" text-anchor="start" fill="#4A5363">Provides data</text><line x1="300" y1="86" x2="220" y2="192" stroke="#6A7488" stroke-width="1.6"/><polygon points="220.0,192.0 221.7,185.2 226.1,188.5" fill="#6A7488"/><circle cx="262" cy="150" r="11" fill="#1F3569"/><text class="ts" x="262" y="150" dominant-baseline="central" text-anchor="middle" fill="#FFFFFF" font-weight="700">D</text><line x1="360" y1="86" x2="470" y2="208" stroke="#6A7488" stroke-width="1.6"/><polygon points="470.0,208.0 463.7,205.0 467.7,201.4" fill="#6A7488"/><circle cx="418" cy="150" r="11" fill="#1F3569"/><text class="ts" x="418" y="150" dominant-baseline="central" text-anchor="middle" fill="#FFFFFF" font-weight="700">A</text><line x1="316" y1="300" x2="372" y2="300" stroke="#6A7488" stroke-width="1.6"/><polygon points="372.0,300.0 365.6,302.7 365.6,297.3" fill="#6A7488"/><polygon points="316.0,300.0 322.4,297.3 322.4,302.7" fill="#6A7488"/><line x1="340" y1="384" x2="340" y2="326" stroke="#6A7488" stroke-width="1.6"/><polygon points="340.0,326.0 342.7,332.4 337.3,332.4" fill="#6A7488"/><circle cx="340" cy="360" r="11" fill="#0E7C86"/><text class="ts" x="340" y="360" dominant-baseline="central" text-anchor="middle" fill="#FFFFFF" font-weight="700">R</text><path d="M265,411 H170 V344" stroke="#6A7488" stroke-width="1.6" fill="none"/><line x1="170" y1="348" x2="170" y2="344" stroke="#6A7488" stroke-width="1.6"/><polygon points="170.0,344.0 172.7,350.4 167.3,350.4" fill="#6A7488"/><circle cx="170" cy="398" r="11" fill="#1F3569"/><text class="ts" x="170" y="398" dominant-baseline="central" text-anchor="middle" fill="#FFFFFF" font-weight="700">M</text><rect x="24" y="458" width="632" height="40" rx="10" fill="#F7F8FB" stroke="#6A7488" stroke-width="1"/><circle cx="48.0" cy="478" r="11" fill="#0E7C86"/><text class="ts" x="48.0" y="478" dominant-baseline="central" text-anchor="middle" fill="#FFFFFF" font-weight="700">R</text><text class="ts" x="64.0" y="478" dominant-baseline="central" text-anchor="start" fill="#444">Resource</text><circle cx="153.33333333333331" cy="478" r="11" fill="#1F3569"/><text class="ts" x="153.33333333333331" y="478" dominant-baseline="central" text-anchor="middle" fill="#FFFFFF" font-weight="700">A</text><text class="ts" x="169.33333333333331" y="478" dominant-baseline="central" text-anchor="start" fill="#444">Authorization</text><circle cx="258.66666666666663" cy="478" r="11" fill="#1F3569"/><text class="ts" x="258.66666666666663" y="478" dominant-baseline="central" text-anchor="middle" fill="#FFFFFF" font-weight="700">D</text><text class="ts" x="274.66666666666663" y="478" dominant-baseline="central" text-anchor="start" fill="#444">Discovery</text><circle cx="364.0" cy="478" r="11" fill="#1F3569"/><text class="ts" x="364.0" y="478" dominant-baseline="central" text-anchor="middle" fill="#FFFFFF" font-weight="700">M</text><text class="ts" x="380.0" y="478" dominant-baseline="central" text-anchor="start" fill="#444">Manage</text><circle cx="469.3333333333333" cy="478" r="11" fill="#1F3569"/><text class="ts" x="469.3333333333333" y="478" dominant-baseline="central" text-anchor="middle" fill="#FFFFFF" font-weight="700">C</text><text class="ts" x="485.3333333333333" y="478" dominant-baseline="central" text-anchor="start" fill="#444">Consent</text><circle cx="574.6666666666666" cy="478" r="11" fill="#1F3569"/><text class="ts" x="574.6666666666666" y="478" dominant-baseline="central" text-anchor="middle" fill="#FFFFFF" font-weight="700">I</text><text class="ts" x="590.6666666666666" y="478" dominant-baseline="central" text-anchor="start" fill="#444">Identity</text></svg>