<svg viewBox="0 0 680 628" xmlns="http://www.w3.org/2000/svg" font-family="Calibri, 'Segoe UI', 'Liberation Sans', Arial, sans-serif"><style>.th{font-size:14px;font-weight:700}.ts{font-size:11px}.tn{font-size:12.5px;font-weight:700}</style><rect width="680" height="628" fill="#FFFFFF"/><rect x="24" y="24" width="632" height="96" rx="12" fill="#EEF0F4" stroke="#6A7488" stroke-width="1"/><rect x="40.0" y="38.0" width="32" height="32" rx="7" fill="#6A7488" fill-opacity="0.28"/><circle cx="52.0" cy="51.0" r="2.4" fill="#6A7488"/><path d="M48.0,59.0 a4,4 0 0 1 8,0" fill="#6A7488"/><circle cx="60.0" cy="52.0" r="2.0" fill="none" stroke="#6A7488" stroke-width="1.4"/><path d="M56.5,59.0 a3.2,3.2 0 0 1 7,0" fill="none" stroke="#6A7488" stroke-width="1.4"/><text class="th" x="82" y="47" dominant-baseline="central" text-anchor="start" fill="#2A3140">External Actors</text><text class="ts" x="82" y="65" dominant-baseline="central" text-anchor="start" fill="#4A5363">Explorers, contributors &amp; administrators over HTTPS</text><rect x="40.0" y="86" width="190.66666666666666" height="28" rx="7" fill="#FFFFFF" stroke="#6A7488" stroke-width="1"/><text class="tn" x="135.33333333333331" y="100.0" dominant-baseline="central" text-anchor="middle" fill="#2A3140">Explorers / Contributors</text><rect x="244.66666666666666" y="86" width="190.66666666666666" height="28" rx="7" fill="#FFFFFF" stroke="#6A7488" stroke-width="1"/><text class="tn" x="340.0" y="100.0" dominant-baseline="central" text-anchor="middle" fill="#2A3140">Administrators</text><rect x="449.3333333333333" y="86" width="190.66666666666666" height="28" rx="7" fill="#FFFFFF" stroke="#6A7488" stroke-width="1"/><text class="tn" x="544.6666666666666" y="100.0" dominant-baseline="central" text-anchor="middle" fill="#2A3140">Notification (eMail/SFTP)</text><line x1="340" y1="120" x2="340" y2="132" stroke="#6A7488" stroke-width="1.6"/><polygon points="340.0,132.0 337.3,125.6 342.7,125.6" fill="#6A7488"/><rect x="24" y="134" width="632" height="96" rx="12" fill="#FCEEDF" stroke="#C95E12" stroke-width="1"/><rect x="40.0" y="148.0" width="32" height="32" rx="7" fill="#C95E12" fill-opacity="0.28"/><path d="M56.0,157.0 l7,3 v5 c0,4.5 -3,7.5 -7,9 c-4,-1.5 -7,-4.5 -7,-9 v-5 z" fill="none" stroke="#C95E12" stroke-width="1.4" stroke-linejoin="round"/><path d="M53.0,164.0 l2,2 4,-4" fill="none" stroke="#C95E12" stroke-width="1.4" stroke-linecap="round" stroke-linejoin="round"/><text class="th" x="82" y="157" dominant-baseline="central" text-anchor="start" fill="#7A3A0A">Edge &amp; Security</text><text class="ts" x="82" y="175" dominant-baseline="central" text-anchor="start" fill="#9A4A10">CDN, WAF, gateway and object storage</text><rect x="40.0" y="196" width="190.66666666666666" height="28" rx="7" fill="#FFFFFF" stroke="#C95E12" stroke-width="1"/><text class="tn" x="135.33333333333331" y="210.0" dominant-baseline="central" text-anchor="middle" fill="#7A3A0A">CloudFront CDN + WAF</text><rect x="244.66666666666666" y="196" width="190.66666666666666" height="28" rx="7" fill="#FFFFFF" stroke="#C95E12" stroke-width="1"/><text class="tn" x="340.0" y="210.0" dominant-baseline="central" text-anchor="middle" fill="#7A3A0A">NGINX Load Balancer / Gateway</text><rect x="449.3333333333333" y="196" width="190.66666666666666" height="28" rx="7" fill="#FFFFFF" stroke="#C95E12" stroke-width="1"/><text class="tn" x="544.6666666666666" y="210.0" dominant-baseline="central" text-anchor="middle" fill="#7A3A0A">Object Storage (S3, signed URLs)</text><line x1="340" y1="230" x2="340" y2="242" stroke="#6A7488" stroke-width="1.6"/><polygon points="340.0,242.0 337.3,235.6 342.7,235.6" fill="#6A7488"/><rect x="24" y="244" width="632" height="150" rx="12" fill="#E7EAF3" stroke="#1F3569" stroke-width="1"/><rect x="40.0" y="258.0" width="32" height="32" rx="7" fill="#1F3569" fill-opacity="0.28"/><polygon points="56.0,267.0 63.0,270.0 63.0,276.0 56.0,281.0 49.0,276.0 49.0,270.0" fill="none" stroke="#1F3569" stroke-width="1.4"/><path d="M53.0,274.0 l2,2 4,-4" fill="none" stroke="#1F3569" stroke-width="1.4" stroke-linecap="round"/><text class="th" x="82" y="267" dominant-baseline="central" text-anchor="start" fill="#1F3569">Private Network — Servers</text><text class="ts" x="82" y="285" dominant-baseline="central" text-anchor="start" fill="#3A4A78">Control-plane &amp; data-plane services, admin-access only</text><rect x="40.0" y="308" width="141.0" height="36" rx="7" fill="#FFFFFF" stroke="#1F3569" stroke-width="1"/><text class="tn" x="110.5" y="326.0" dominant-baseline="central" text-anchor="middle" fill="#1F3569">Identity Server</text><rect x="193.0" y="308" width="141.0" height="36" rx="7" fill="#FFFFFF" stroke="#1F3569" stroke-width="1"/><text class="tn" x="263.5" y="326.0" dominant-baseline="central" text-anchor="middle" fill="#1F3569">AAA Server</text><rect x="346.0" y="308" width="141.0" height="36" rx="7" fill="#FFFFFF" stroke="#1F3569" stroke-width="1"/><text class="tn" x="416.5" y="326.0" dominant-baseline="central" text-anchor="middle" fill="#1F3569">Catalogue Server</text><rect x="499.0" y="308" width="141.0" height="36" rx="7" fill="#FFFFFF" stroke="#1F3569" stroke-width="1"/><text class="tn" x="569.5" y="326.0" dominant-baseline="central" text-anchor="middle" fill="#1F3569">Consent Validator</text><rect x="40.0" y="352" width="141.0" height="36" rx="7" fill="#FFFFFF" stroke="#1F3569" stroke-width="1"/><text class="tn" x="110.5" y="370.0" dominant-baseline="central" text-anchor="middle" fill="#1F3569">Resource Server</text><rect x="193.0" y="352" width="141.0" height="36" rx="7" fill="#FFFFFF" stroke="#1F3569" stroke-width="1"/><text class="tn" x="263.5" y="370.0" dominant-baseline="central" text-anchor="middle" fill="#1F3569">OGC Server</text><rect x="346.0" y="352" width="141.0" height="36" rx="7" fill="#FFFFFF" stroke="#1F3569" stroke-width="1"/><text class="tn" x="416.5" y="370.0" dominant-baseline="central" text-anchor="middle" fill="#1F3569">Files Connect</text><rect x="499.0" y="352" width="141.0" height="36" rx="7" fill="#FFFFFF" stroke="#1F3569" stroke-width="1"/><text class="tn" x="569.5" y="370.0" dominant-baseline="central" text-anchor="middle" fill="#1F3569">RS Proxy</text><line x1="340" y1="394" x2="340" y2="406" stroke="#6A7488" stroke-width="1.6"/><polygon points="340.0,406.0 337.3,399.6 342.7,399.6" fill="#6A7488"/><rect x="24" y="408" width="632" height="96" rx="12" fill="#E2F1F2" stroke="#0E7C86" stroke-width="1"/><rect x="40.0" y="422.0" width="32" height="32" rx="7" fill="#0E7C86" fill-opacity="0.28"/><circle cx="53.0" cy="438.0" r="2.0" fill="none" stroke="#0E7C86" stroke-width="1.4"/><circle cx="59.0" cy="438.0" r="2.0" fill="none" stroke="#0E7C86" stroke-width="1.4"/><line x1="54.4" y1="436.6" x2="57.6" y2="439.4" stroke="#0E7C86" stroke-width="1.6" stroke-linecap="round"/><line x1="54.4" y1="439.4" x2="57.6" y2="436.6" stroke="#0E7C86" stroke-width="1.6" stroke-linecap="round"/><text class="th" x="82" y="431" dominant-baseline="central" text-anchor="start" fill="#0B4F56">Data Stores</text><text class="ts" x="82" y="449" dominant-baseline="central" text-anchor="start" fill="#0B626A">Streaming, indices, relational, immutable &amp; geospatial</text><rect x="40.0" y="470" width="112.0" height="28" rx="7" fill="#FFFFFF" stroke="#0E7C86" stroke-width="1"/><text class="tn" x="96.0" y="484.0" dominant-baseline="central" text-anchor="middle" fill="#0B4F56">RabbitMQ</text><rect x="162.0" y="470" width="112.0" height="28" rx="7" fill="#FFFFFF" stroke="#0E7C86" stroke-width="1"/><text class="tn" x="218.0" y="484.0" dominant-baseline="central" text-anchor="middle" fill="#0B4F56">Elasticsearch</text><rect x="284.0" y="470" width="112.0" height="28" rx="7" fill="#FFFFFF" stroke="#0E7C86" stroke-width="1"/><text class="tn" x="340.0" y="484.0" dominant-baseline="central" text-anchor="middle" fill="#0B4F56">PostgreSQL</text><rect x="406.0" y="470" width="112.0" height="28" rx="7" fill="#FFFFFF" stroke="#0E7C86" stroke-width="1"/><text class="tn" x="462.0" y="484.0" dominant-baseline="central" text-anchor="middle" fill="#0B4F56">ImmuDB</text><rect x="528.0" y="470" width="112.0" height="28" rx="7" fill="#FFFFFF" stroke="#0E7C86" stroke-width="1"/><text class="tn" x="584.0" y="484.0" dominant-baseline="central" text-anchor="middle" fill="#0B4F56">PostGIS</text><line x1="340" y1="504" x2="340" y2="516" stroke="#6A7488" stroke-width="1.6"/><polygon points="340.0,516.0 337.3,509.6 342.7,509.6" fill="#6A7488"/><rect x="24" y="518" width="632" height="90" rx="12" fill="#E6F3EC" stroke="#1E8E5A" stroke-width="1"/><rect x="40.0" y="532.0" width="32" height="32" rx="7" fill="#1E8E5A" fill-opacity="0.28"/><polygon points="56.0,541.0 58.0,546.0 63.0,548.0 58.0,550.0 56.0,555.0 54.0,550.0 49.0,548.0 54.0,546.0" fill="#1E8E5A" stroke="#1E8E5A" stroke-width="1.4"/><text class="th" x="82" y="541" dominant-baseline="central" text-anchor="start" fill="#124E32">Observability &amp; Operations</text><text class="ts" x="82" y="559" dominant-baseline="central" text-anchor="start" fill="#176E46">Metrics, logs, monitoring &amp; resilience</text><rect x="40.0" y="572" width="112.0" height="28" rx="7" fill="#FFFFFF" stroke="#1E8E5A" stroke-width="1"/><text class="tn" x="96.0" y="586.0" dominant-baseline="central" text-anchor="middle" fill="#124E32">Prometheus</text><rect x="162.0" y="572" width="112.0" height="28" rx="7" fill="#FFFFFF" stroke="#1E8E5A" stroke-width="1"/><text class="tn" x="218.0" y="586.0" dominant-baseline="central" text-anchor="middle" fill="#124E32">Grafana</text><rect x="284.0" y="572" width="112.0" height="28" rx="7" fill="#FFFFFF" stroke="#1E8E5A" stroke-width="1"/><text class="tn" x="340.0" y="586.0" dominant-baseline="central" text-anchor="middle" fill="#124E32">Loki</text><rect x="406.0" y="572" width="112.0" height="28" rx="7" fill="#FFFFFF" stroke="#1E8E5A" stroke-width="1"/><text class="tn" x="462.0" y="586.0" dominant-baseline="central" text-anchor="middle" fill="#124E32">Backup System</text><rect x="528.0" y="572" width="112.0" height="28" rx="7" fill="#FFFFFF" stroke="#1E8E5A" stroke-width="1"/><text class="tn" x="584.0" y="586.0" dominant-baseline="central" text-anchor="middle" fill="#124E32">Alerting</text></svg>