<svg viewBox="0 0 740 472" xmlns="http://www.w3.org/2000/svg" font-family="Poppins, 'Segoe UI', 'Liberation Sans', Arial, sans-serif"><rect width="740" height="472" fill="#FFFFFF"/><rect x="18" y="18" width="150" height="66" rx="8" fill="#1F3569"/><text x="31" y="51.0" fill="#FFFFFF" font-size="12.5" font-weight="600" dominant-baseline="central">API Server</text><rect x="168" y="18" width="194" height="66" rx="8" fill="#EEF1F7" stroke="#D7DCEA" stroke-width="1"/><text x="265.0" y="51.0" fill="#26345C" font-size="12" font-weight="500" text-anchor="middle" dominant-baseline="central">Vert.x · Node.js · OpenAPI</text><rect x="378" y="18" width="150" height="66" rx="8" fill="#1F3569"/><text x="391" y="51.0" fill="#FFFFFF" font-size="12.5" font-weight="600" dominant-baseline="central">Data Broker</text><rect x="528" y="18" width="194" height="66" rx="8" fill="#EEF1F7" stroke="#D7DCEA" stroke-width="1"/><text x="625.0" y="51.0" fill="#26345C" font-size="12" font-weight="500" text-anchor="middle" dominant-baseline="central">RabbitMQ</text><rect x="18" y="92" width="150" height="66" rx="8" fill="#1F3569"/><text x="31" y="125.0" fill="#FFFFFF" font-size="12.5" font-weight="600" dominant-baseline="central">Data Ingestion</text><rect x="168" y="92" width="194" height="66" rx="8" fill="#EEF1F7" stroke="#D7DCEA" stroke-width="1"/><text x="265.0" y="125.0" fill="#26345C" font-size="12" font-weight="500" text-anchor="middle" dominant-baseline="central">Python · Apache NiFi · Logstash</text><rect x="378" y="92" width="150" height="66" rx="8" fill="#1F3569"/><text x="391" y="117.0" fill="#FFFFFF" font-size="12.5" font-weight="600" dominant-baseline="central">Development &amp;</text><text x="391" y="133.0" fill="#FFFFFF" font-size="12.5" font-weight="600" dominant-baseline="central">Testing Tools</text><rect x="528" y="92" width="194" height="66" rx="8" fill="#EEF1F7" stroke="#D7DCEA" stroke-width="1"/><text x="625.0" y="116.0" fill="#26345C" font-size="12" font-weight="500" text-anchor="middle" dominant-baseline="central">JavaScript · Bash</text><text x="625.0" y="134.0" fill="#26345C" font-size="12" font-weight="500" text-anchor="middle" dominant-baseline="central">JMeter · Postman</text><rect x="18" y="166" width="150" height="66" rx="8" fill="#1F3569"/><text x="31" y="199.0" fill="#FFFFFF" font-size="12.5" font-weight="600" dominant-baseline="central">Data Store</text><rect x="168" y="166" width="194" height="66" rx="8" fill="#EEF1F7" stroke="#D7DCEA" stroke-width="1"/><text x="265.0" y="190.0" fill="#26345C" font-size="12" font-weight="500" text-anchor="middle" dominant-baseline="central">Elasticsearch · PostgreSQL</text><text x="265.0" y="208.0" fill="#26345C" font-size="12" font-weight="500" text-anchor="middle" dominant-baseline="central">Redis · immudb</text><rect x="378" y="166" width="150" height="66" rx="8" fill="#1F3569"/><text x="391" y="191.0" fill="#FFFFFF" font-size="12.5" font-weight="600" dominant-baseline="central">API Gateway</text><text x="391" y="207.0" fill="#FFFFFF" font-size="12.5" font-weight="600" dominant-baseline="central">&amp; Security</text><rect x="528" y="166" width="194" height="66" rx="8" fill="#EEF1F7" stroke="#D7DCEA" stroke-width="1"/><text x="625.0" y="199.0" fill="#26345C" font-size="12" font-weight="500" text-anchor="middle" dominant-baseline="central">NGINX · Keycloak · SSL/TLS</text><rect x="18" y="240" width="150" height="66" rx="8" fill="#1F3569"/><text x="31" y="265.0" fill="#FFFFFF" font-size="12.5" font-weight="600" dominant-baseline="central">Deployment,</text><text x="31" y="281.0" fill="#FFFFFF" font-size="12.5" font-weight="600" dominant-baseline="central">Scaling &amp; Clustering</text><rect x="168" y="240" width="194" height="66" rx="8" fill="#EEF1F7" stroke="#D7DCEA" stroke-width="1"/><text x="265.0" y="264.0" fill="#26345C" font-size="12" font-weight="500" text-anchor="middle" dominant-baseline="central">Hazelcast · Docker · Kubernetes</text><text x="265.0" y="282.0" fill="#26345C" font-size="12" font-weight="500" text-anchor="middle" dominant-baseline="central">Rancher · ZooKeeper</text><rect x="378" y="240" width="150" height="66" rx="8" fill="#1F3569"/><text x="391" y="265.0" fill="#FFFFFF" font-size="12.5" font-weight="600" dominant-baseline="central">Logging &amp;</text><text x="391" y="281.0" fill="#FFFFFF" font-size="12.5" font-weight="600" dominant-baseline="central">System Metrics</text><rect x="528" y="240" width="194" height="66" rx="8" fill="#EEF1F7" stroke="#D7DCEA" stroke-width="1"/><text x="625.0" y="273.0" fill="#26345C" font-size="12" font-weight="500" text-anchor="middle" dominant-baseline="central">Micrometer · Loki · Prometheus</text><rect x="18" y="314" width="150" height="66" rx="8" fill="#1F3569"/><text x="31" y="347.0" fill="#FFFFFF" font-size="12.5" font-weight="600" dominant-baseline="central">User Interface</text><rect x="168" y="314" width="194" height="66" rx="8" fill="#EEF1F7" stroke="#D7DCEA" stroke-width="1"/><text x="265.0" y="347.0" fill="#26345C" font-size="12" font-weight="500" text-anchor="middle" dominant-baseline="central">Angular · React</text><rect x="378" y="314" width="150" height="66" rx="8" fill="#1F3569"/><text x="391" y="347.0" fill="#FFFFFF" font-size="12.5" font-weight="600" dominant-baseline="central">System Monitoring</text><rect x="528" y="314" width="194" height="66" rx="8" fill="#EEF1F7" stroke="#D7DCEA" stroke-width="1"/><text x="625.0" y="347.0" fill="#26345C" font-size="12" font-weight="500" text-anchor="middle" dominant-baseline="central">Grafana · Kibana</text><rect x="18" y="388" width="150" height="66" rx="8" fill="#1F3569"/><text x="31" y="413.0" fill="#FFFFFF" font-size="12.5" font-weight="600" dominant-baseline="central">Sandbox &amp;</text><text x="31" y="429.0" fill="#FFFFFF" font-size="12.5" font-weight="600" dominant-baseline="central">Analytics Layer</text><rect x="168" y="388" width="194" height="66" rx="8" fill="#EEF1F7" stroke="#D7DCEA" stroke-width="1"/><text x="265.0" y="421.0" fill="#26345C" font-size="12" font-weight="500" text-anchor="middle" dominant-baseline="central">JupyterHub · Apache Superset</text><rect x="378" y="388" width="150" height="66" rx="8" fill="#1F3569"/><text x="391" y="421.0" fill="#FFFFFF" font-size="12.5" font-weight="600" dominant-baseline="central">Community Layer</text><rect x="528" y="388" width="194" height="66" rx="8" fill="#EEF1F7" stroke="#D7DCEA" stroke-width="1"/><text x="625.0" y="421.0" fill="#26345C" font-size="12" font-weight="500" text-anchor="middle" dominant-baseline="central">osTicket</text></svg>